Coordinates
version=1
nRows=8
nColumns=40
inDegrees=yes

Units are S.I. units (second, meters, Newtons, ...)
If the header above contains a line with 'inDegrees', this indicates whether rotational values are in degrees (yes) or radians (no).

endheader
time	pelvis_tilt	pelvis_list	pelvis_rotation	pelvis_tx	pelvis_ty	pelvis_tz	hip_flexion_r	hip_adduction_r	hip_rotation_r	knee_angle_r	knee_angle_r_beta	ankle_angle_r	subtalar_angle_r	mtp_angle_r	hip_flexion_l	hip_adduction_l	hip_rotation_l	knee_angle_l	knee_angle_l_beta	ankle_angle_l	subtalar_angle_l	mtp_angle_l	lumbar_extension	lumbar_bending	lumbar_rotation	arm_flex_r	arm_add_r	arm_rot_r	elbow_flex_r	pro_sup_r	wrist_flex_r	wrist_dev_r	arm_flex_l	arm_add_l	arm_rot_l	elbow_flex_l	pro_sup_l	wrist_flex_l	wrist_dev_l
      3.06500000	      2.29193440	     -6.08082916	      2.94309659	     -0.33778656	      0.92050140	     -1.06637872	     39.03706705	      2.25382981	     -5.44565101	      1.83520115	      0.03203030	    -11.67047442	      0.00000000	      0.00000000	     34.65127400	     -3.22514770	     -0.96514697	     67.39359197	      1.17624007	     20.20360044	      0.00000000	      0.00000000	    -19.28570702	      2.23924310	      5.52807145	     89.93485915	     -1.56594734	     13.81158722	     38.09499923	     82.36529319	      0.00000000	      0.00000000	     89.95799317	     -1.15558190	     24.37715462	     46.56826590	     73.89889859	      0.00000000	      0.00000000
      3.07000000	      2.39704722	     -6.02023130	      2.91744435	     -0.33748178	      0.92236638	     -1.06669981	     38.77311330	      2.23419700	     -5.47983294	      1.84157635	      0.03214157	    -11.69784450	      0.00000000	      0.00000000	     34.27706721	     -3.19931203	     -1.07161535	     66.92715166	      1.16809916	     19.88785655	      0.00000000	      0.00000000	    -19.32628264	      2.19953438	      5.43979085	     89.93522714	     -1.49441112	     14.02146257	     37.85284836	     82.43237587	      0.00000000	      0.00000000	     89.95796704	     -1.25495591	     24.52269048	     46.44252852	     74.01950290	      0.00000000	      0.00000000
      3.07500000	      2.33855532	     -6.05588582	      2.90811577	     -0.33704508	      0.92389046	     -1.06680790	     38.68860919	      2.27814298	     -5.45852981	      1.87194266	      0.03267156	    -11.68643385	      0.00000000	      0.00000000	     34.17684911	     -3.28335817	     -1.10765488	     66.59403973	      1.16228526	     19.71907415	      0.00000000	      0.00000000	    -19.20049832	      2.25673928	      5.41666884	     89.93376704	     -1.45217051	     14.03913117	     37.85934419	     82.44517626	      0.00000000	      0.00000000	     89.95765956	     -1.28659203	     24.56654100	     46.39109780	     74.05068081	      0.00000000	      0.00000000
      3.08000000	      2.31453653	     -6.06541635	      2.90830587	     -0.33668185	      0.92551555	     -1.06694921	     38.56642981	      2.30068795	     -5.47420578	      1.88310033	      0.03286630	    -11.70133832	      0.00000000	      0.00000000	     33.99465873	     -3.34486884	     -1.19825400	     66.23097396	      1.15594856	     19.48899452	      0.00000000	      0.00000000	    -19.10856842	      2.28707779	      5.38276726	     89.93260247	     -1.42836250	     14.13210017	     37.70027243	     82.46584265	      0.00000000	      0.00000000	     89.95754106	     -1.33741791	     24.63252865	     46.32610584	     74.08888122	      0.00000000	      0.00000000
      3.08500000	      2.27515103	     -6.08330530	      2.94912890	     -0.33622405	      0.92713275	     -1.06716874	     38.44798912	      2.30909496	     -5.44334973	      1.90006736	      0.03316243	    -11.71752174	      0.00000000	      0.00000000	     33.82739665	     -3.41883365	     -1.33477888	     65.84980114	      1.14929584	     19.29805682	      0.00000000	      0.00000000	    -18.98074708	      2.32432660	      5.27597536	     89.93205017	     -1.39059192	     14.20071678	     37.58780294	     82.49065246	      0.00000000	      0.00000000	     89.95713263	     -1.38005284	     24.72699942	     46.22994688	     74.12680444	      0.00000000	      0.00000000
      3.09000000	      2.42140663	     -5.94158862	      2.97478825	     -0.33560533	      0.92908171	     -1.06754580	     38.13464487	      2.19968991	     -5.55974434	      1.93906019	      0.03384298	    -11.68846099	      0.00000000	      0.00000000	     33.38730410	     -3.28213083	     -1.43081336	     65.39148483	      1.14129671	     18.95521868	      0.00000000	      0.00000000	    -19.03101997	      2.22495360	      5.13836039	     89.93144609	     -1.27414023	     14.36410986	     37.29468368	     82.55065040	      0.00000000	      0.00000000	     89.95707353	     -1.49650628	     24.95063784	     46.03086552	     74.22048026	      0.00000000	      0.00000000
      3.09500000	      2.33768936	     -5.98656152	      3.05948308	     -0.33520305	      0.93055592	     -1.06780019	     38.03973098	      2.18501643	     -5.47368492	      1.90993627	      0.03333468	    -11.70512167	      0.00000000	      0.00000000	     33.30471271	     -3.34703301	     -1.51289069	     65.08009733	      1.13586198	     18.82410644	      0.00000000	      0.00000000	    -18.88444231	      2.31167172	      5.02372301	     89.93038493	     -1.26541418	     14.39023094	     37.27379157	     82.57051257	      0.00000000	      0.00000000	     89.95674908	     -1.52322354	     25.00211763	     46.01808145	     74.25550219	      0.00000000	      0.00000000
      3.10000000	      2.30243566	     -6.01840475	      3.06745760	     -0.33472982	      0.93219910	     -1.06790430	     37.90386248	      2.23028502	     -5.41905465	      1.89481117	      0.03307069	    -11.69913669	      0.00000000	      0.00000000	     33.11878803	     -3.41354898	     -1.54204630	     64.67865879	      1.12885555	     18.63568961	      0.00000000	      0.00000000	    -18.76149852	      2.35248735	      4.94115083	     89.92911719	     -1.19940149	     14.46763880	     37.13952683	     82.59808403	      0.00000000	      0.00000000	     89.95638836	     -1.61146539	     25.09170944	     45.90102611	     74.29133559	      0.00000000	      0.00000000
